<svg xmlns="http://www.w3.org/2000/svg" height="24px" viewBox="0 -960 960 960" width="24px" fill="#e3e3e3"><path d="M592-379q49-39 63-101h-83q-12 27-37 43.5T480-420q-30 0-55-16.5T388-480h-83q14 62 63 101t112 39q63 0 112-39ZM405.5-554.5Q420-569 420-590t-14.5-35.5Q391-640 370-640t-35.5 14.5Q320-611 320-590t14.5 35.5Q349-540 370-540t35.5-14.5Zm220 0Q640-569 640-590t-14.5-35.5Q611-640 590-640t-35.5 14.5Q540-611 540-590t14.5 35.5Q569-540 590-540t35.5-14.5ZM480-120l-58-50q-101-88-167-152T150-437q-39-51-54.5-94T80-620q0-94 63-157t157-63q52 0 99 22t81 62q34-40 81-62t99-22q94 0 157 63t63 157q0 46-15.5 89T810-437q-39 51-105 115T538-170l-58 50Z"/></svg>