<svg xmlns="http://www.w3.org/2000/svg" height="24px" viewBox="0 -960 960 960" width="24px" fill="#f0eee9"><path d="M447.67-125.04q-13.17-13.18-13.17-32.33v-276.89H157.37q-19.15 0-32.33-13.17-13.17-13.18-13.17-32.33t13.17-32.33q13.18-13.17 32.33-13.17h276.89v-277.37q0-19.15 13.17-32.33 13.18-13.17 32.33-13.17t32.33 13.17q13.17 13.18 13.17 32.33v277.13h277.37q19.15 0 32.33 13.17 13.17 13.18 13.17 32.33t-13.17 32.33q-13.18 13.17-32.33 13.17H525.5v277.13q0 19.15-13.17 32.33-13.18 13.17-32.33 13.17t-32.33-13.17Z"/></svg>