<svg xmlns="http://www.w3.org/2000/svg" height="40px" viewBox="0 -960 960 960" width="40px" fill="#f0eee9"><path d="M442.12-442.12H231.18q-16 0-26.94-10.98-10.94-10.97-10.94-27.02 0-16.05 10.94-26.9 10.94-10.86 26.94-10.86h210.94v-210.94q0-16 10.98-27.02 10.97-11.02 27.02-11.02 16.05 0 26.9 11.02 10.86 11.02 10.86 27.02v210.94h210.94q16 0 27.02 10.98 11.02 10.97 11.02 27.02 0 16.05-11.02 26.9-11.02 10.86-27.02 10.86H517.88v210.94q0 16-10.98 26.94-10.97 10.94-27.02 10.94-16.05 0-26.9-10.94-10.86-10.94-10.86-26.94v-210.94Z"/></svg>