<svg xmlns="http://www.w3.org/2000/svg" height="24px" viewBox="0 -960 960 960" width="24px" fill="#f0eee9"><path d="M332.76-132.76Q271.87-193.65 271.87-280q0-48.72 21-91.17 21-42.46 59-72.42V-760q0-53.35 37.39-90.74 37.39-37.39 90.74-37.39 53.35 0 90.74 37.39 37.39 37.39 37.39 90.74v316.41q38 29.96 59 72.42 21 42.45 21 91.17 0 86.35-60.89 147.24Q566.35-71.87 480-71.87q-86.35 0-147.24-60.89Zm110.11-386.52h74.26v-39.52H480v-42.4h37.13v-77.6H480v-42.4h37.13V-760q0-15.57-10.78-26.35-10.78-10.78-26.35-10.78-15.57 0-26.35 10.78-10.78 10.78-10.78 26.35v240.72Z"/></svg>