<svg xmlns="http://www.w3.org/2000/svg" height="40px" viewBox="0 -960 960 960" width="40px" fill="#f0eee9"><path d="M586.33-383q46.67-36.33 61.34-95l-69.67.67q-13.33 29-39.67 46.5-26.33 17.5-58.33 17.5t-58.33-17.5q-26.34-17.5-39.67-46.5h-69.67q14.67 58 61.19 94.33 46.52 36.33 106.33 36.33 59.82 0 106.48-36.33Zm-185.5-176.26q12.5-12.59 12.5-30.83t-12.59-30.74q-12.59-12.5-30.83-12.5t-30.74 12.59q-12.5 12.59-12.5 30.83t12.59 30.74q12.59 12.5 30.83 12.5t30.74-12.59Zm220 0q12.5-12.59 12.5-30.83t-12.59-30.74q-12.59-12.5-30.83-12.5t-30.74 12.59q-12.5 12.59-12.5 30.83t12.59 30.74q12.59 12.5 30.83 12.5t30.74-12.59ZM480-120.67l-46.67-40.66Q329-253.33 260.67-321 192.33-388.67 152-442t-56.17-97.33Q80-583.33 80-628.67q0-90.29 61.33-150.81 61.34-60.52 152-60.52 55.34 0 103.34 25.33 48 25.34 83.33 72.67 39.33-49.33 86.33-73.67 47-24.33 100.34-24.33 90.66 0 152 60.52Q880-718.96 880-628.67q0 45.34-15.83 89.34-15.84 44-56.17 97.33T699.67-321q-68 67.67-173 159.67L480-120.67Zm0-88.66Q579.33-297.67 643.67-360q64.33-62.33 102-109.83 37.66-47.5 52.66-84.67t15-73.89q0-62.94-41.33-103.94t-105.18-41q-50.02 0-92.59 29.83-42.56 29.83-65.56 81.5h-58q-22.34-51-64.9-81.17-42.57-30.16-92.59-30.16-63.85 0-105.18 40.66-41.33 40.67-41.33 104.04 0 36.96 15 74.46 15 37.5 52.66 85 37.67 47.5 102.34 109.84Q381.33-297 480-209.33Zm0-282Z"/></svg>