<svg xmlns="http://www.w3.org/2000/svg" height="40px" viewBox="0 -960 960 960" width="40px" fill="#f0eee9"><path d="M151.18-230.2q-16 0-26.94-10.97-10.94-10.97-10.94-27.1 0-16.13 10.94-26.98 10.94-10.86 26.94-10.86h657.64q16 0 27.02 10.97 11.02 10.98 11.02 27.11 0 16.12-11.02 26.98-11.02 10.85-27.02 10.85H151.18Zm0-211.92q-16 0-26.94-10.98-10.94-10.97-10.94-27.02 0-16.05 10.94-26.9 10.94-10.86 26.94-10.86h657.64q16 0 27.02 10.98 11.02 10.97 11.02 27.02 0 16.05-11.02 26.9-11.02 10.86-27.02 10.86H151.18Zm0-211.77q-16 0-26.94-10.97-10.94-10.98-10.94-27.11 0-16.12 10.94-26.98 10.94-10.85 26.94-10.85h657.64q16 0 27.02 10.97t11.02 27.1q0 16.13-11.02 26.98-11.02 10.86-27.02 10.86H151.18Z"/></svg>