<svg xmlns="http://www.w3.org/2000/svg" height="40px" viewBox="0 -960 960 960" width="40px" fill="#f0eee9"><path d="M231.93-400q0 55.11 23.37 104.02 23.37 48.92 66.06 83.42-2.92-8.6-4.25-17.41t-1.33-17.6q1.27-30.64 13.39-57.33 12.12-26.68 34.32-48.88L480-468.53l116.75 114.75q22.2 22.2 34.32 48.88 12.12 26.69 13.15 57.33 0 8.79-1.33 17.6-1.33 8.81-4.09 17.41 42.29-34.5 65.86-83.42 23.57-48.91 23.57-104.02 0-50.51-20.42-98.01-20.43-47.49-58.85-86.71-20.66 13.54-43.14 21.01-22.49 7.48-44.83 7.48-60.53 0-102.8-39.66-42.27-39.66-47.47-100.55v-13.33q-41.76 32.12-74.87 69.55-33.11 37.42-56.2 77.31-23.09 39.9-35.41 81.54-12.31 41.65-12.31 81.37ZM480-362.36l-63.46 62.62q-12.61 12.44-19.25 27.73-6.64 15.3-6.64 32.81 0 36.38 26.05 61.83 26.05 25.44 63.3 25.44t63.3-25.46q26.05-25.47 26.05-61.88 0-17.64-6.64-32.83-6.64-15.2-19.06-27.61L480-362.36Zm3.99-484.02V-708q0 32.43 22.29 54.22t54.71 21.79q17.21 0 31.92-7.14 14.7-7.14 26.14-21.5l19.91-24.63q76.43 43.5 120.73 119.98t44.3 165.23q0 135.6-94.21 229.82T479.99-76.01q-135.58 0-229.78-94.21-94.2-94.2-94.2-229.78 0-129.69 88.12-249.43 88.12-119.74 239.86-196.95Z"/></svg>