<svg xmlns="http://www.w3.org/2000/svg" height="24px" viewBox="0 -960 960 960" width="24px" fill="#f0eee9"><path d="M246.22-400q0 46.98 17.89 89.17 17.89 42.2 51.63 75.05-.76-3.81-.76-6.85v-6.85q1.43-30.32 13.55-56.77 12.12-26.45 34.17-48.49L480-470.28l117.54 115.54q22.05 22.04 34.17 48.49 12.12 26.45 13.31 56.77v6.85q0 3.04-.76 6.85 33.5-32.85 51.51-75.05 18.01-42.19 18.01-89.17 0-47.37-17.18-89.96-17.19-42.58-49.8-76.15-20 12.04-41.76 18.19-21.76 6.14-44.04 6.14-61.04 0-107.14-39.09t-56.45-97.65q-36.61 31.8-64.81 65.99-28.21 34.18-47.39 69.25-19.19 35.06-29.09 71.39-9.9 36.32-9.9 71.89ZM480-342.74l-53.65 52.65q-10.28 10.29-15.93 23.45-5.64 13.16-5.64 27.21 0 30.08 22.07 51.65 22.06 21.56 53.15 21.56t53.15-21.56q22.07-21.57 22.07-51.65 0-14.81-5.64-27.59-5.65-12.78-15.93-23.07L480-342.74Zm4.78-504.91V-708q0 32.09 22.07 53.65 22.06 21.57 54.15 21.57 17.04 0 31.59-7.14 14.54-7.15 25.82-21.19l20.39-25.11q76.87 43.68 121.43 120.47 44.55 76.79 44.55 165.75 0 135.91-94.43 230.35Q615.91-75.22 480-75.22t-230.35-94.43Q155.22-264.09 155.22-400q0-130.67 88.77-249.07 88.77-118.39 240.79-198.58Z"/></svg>