<svg xmlns="http://www.w3.org/2000/svg" height="24px" viewBox="0 -960 960 960" width="24px" fill="#f0eee9"><path d="M618.09-518.09q25.95 0 43.93-17.98Q680-554.04 680-580t-17.98-43.93q-17.98-17.98-43.93-17.98-25.72 0-43.7 18.09-17.98 18.1-17.98 43.82t17.98 43.82q17.98 18.09 43.7 18.09Zm-276.18 0q25.72 0 43.7-18.09 17.98-18.1 17.98-43.82t-17.98-43.82q-17.98-18.09-43.7-18.09-25.95 0-43.93 17.98Q280-605.96 280-580t17.98 43.93q17.98 17.98 43.93 17.98ZM480-71.87q-84.91 0-159.35-32.1-74.43-32.1-129.51-87.17-55.07-55.08-87.17-129.51-32.1-74.44-32.1-159.35 0-84.96 31.5-158.79 31.5-73.84 86.62-128.8 55.12-54.95 128.48-87.03 73.36-32.08 156.31-33.27 18.15-.48 29.09 13.69 10.93 14.18 8.7 33.33-2.24 19.15-15.92 30.95-13.67 11.79-32.82 13.27-32.85 1.48-64.32 9.86-31.47 8.38-61.31 23.18-78.29 39.52-126.81 114.93-48.52 75.4-48.52 168.68 0 132.04 92.66 224.59Q348.2-162.87 480-162.87q98.28 0 176.57-53.4 78.28-53.4 114.8-138.69 17.04-38.61 23.04-79.21 6-40.61.44-81.98-1.76-19.15 7.91-34.45 9.67-15.29 27.83-20.53 18.39-5.24 34.06 3.08 15.68 8.31 18.44 26.46 8.8 58.05 1.44 116.35-7.36 58.31-31.12 111.59-47.95 108.15-147.37 174.97Q606.63-71.87 480-71.87ZM480-480Zm279.59-397.26q20.71-20.72 37.81-35.2 17.1-14.47 47.3-14.47 38.43 0 61.65 26.33 23.22 26.34 23.22 59.53 0 15.48-6.24 31.08-6.24 15.6-18.72 28.08L791.65-668.96q-13.67 13.68-32.06 13.68t-32.07-13.68L614.57-781.91q-13.24-13.24-19.1-28.84-5.86-15.6-5.86-31.08 0-33.19 23.84-59.15 23.83-25.95 61.27-25.95 28.95 0 45.55 13.47 16.6 13.48 39.32 36.2ZM480-260q58.72 0 108.7-28.1 49.97-28.1 78.73-78.05 7-11.48-.73-24.1-7.74-12.62-21.98-12.62H315.28q-14.24 0-21.98 12.5-7.73 12.5-.73 23.98 28.76 49.96 79.11 78.17Q422.04-260 480-260Z"/></svg>