<svg xmlns="http://www.w3.org/2000/svg" height="40px" viewBox="0 -960 960 960" width="40px" fill="#f0eee9"><path d="M336.83-100.71q-66.82-28.69-116.64-78.48-49.83-49.79-78.48-116.53-28.64-66.73-28.64-143.16h75.75q0 121.45 84.91 206.19 84.92 84.75 206.24 84.75 121.32 0 206.15-84.83 84.82-84.83 84.82-206.19 0-121.46-83.15-206.2-83.14-84.75-204.7-84.75h-17.41l67.74 67.74-48.31 49.49-156.44-156.6 156.44-156.43 48.31 49.06-70.99 70.83h17.33q76.51 0 143.33 28.69 66.82 28.68 116.65 78.47 49.83 49.79 78.51 116.52 28.68 66.72 28.68 143.13 0 76.4-28.64 143.2-28.65 66.8-78.49 116.64-49.83 49.84-116.57 78.49-66.74 28.65-143.16 28.65-76.43 0-143.24-28.68Z"/></svg>