<svg xmlns="http://www.w3.org/2000/svg" height="24px" viewBox="0 -960 960 960" width="24px" fill="#f0eee9"><path d="M420.99-817.28q-24.58-24.7-24.58-59.13 0-34.44 24.58-59.01Q445.57-960 480-960t59.01 24.58q24.58 24.57 24.58 59.01 0 34.43-24.58 59.13-24.58 24.69-59.01 24.69t-59.01-24.69Zm-65.29 578v-427.09q-48.05-4-96.73-10.76-48.69-6.76-95.97-17.52-18.43-4.24-29.53-20.44-11.1-16.19-5.86-34.63 5.24-18.43 22.55-27.15 17.32-8.72 36.99-4.48 70 14.76 145.02 21.76 75.03 7 147.83 7 72.8 0 147.83-7 75.02-7 145.26-21.76 19.67-4.24 36.99 4.48 17.31 8.72 22.55 27.15 5.24 18.44-5.86 34.63-11.1 16.2-29.53 20.44-47.28 10.76-96.09 17.52-48.8 6.76-96.85 10.76v427.09q0 18.43-12.57 31.01-12.58 12.57-31.01 12.57-18.44 0-31.01-12.57-12.58-12.58-12.58-31.01v-191.63h-74.26v191.63q0 18.43-12.58 31.01-12.57 12.57-31.01 12.57-18.43 0-31.01-12.57-12.57-12.58-12.57-31.01ZM285.88-12.46Q273.3-24.91 273.3-42.87t12.58-30.53q12.58-12.58 30.53-12.58 17.96 0 30.42 12.58 12.45 12.57 12.45 30.53t-12.45 30.41Q334.37 0 316.41 0q-17.95 0-30.53-12.46Zm163.83 0q-12.34-12.45-12.34-30.41t12.34-30.53Q462.04-85.98 480-85.98t30.41 12.58q12.46 12.57 12.46 30.53t-12.46 30.41Q497.96 0 480 0t-30.29-12.46Zm163.94 0Q601.2-24.91 601.2-42.87t12.45-30.53q12.46-12.58 30.42-12.58 17.95 0 30.41 12.58 12.45 12.57 12.45 30.53t-12.45 30.41Q662.02 0 644.07 0q-17.96 0-30.42-12.46Z"/></svg>