<svg xmlns="http://www.w3.org/2000/svg" height="24px" viewBox="0 -960 960 960" width="24px" fill="#efe237"><path d="M434.5-756.41v-171h91v171h-91Zm272.7 112.87-62.9-62.89 119.9-122.42 63.89 64.42L707.2-643.54Zm49.21 209.04v-91h171v91h-171ZM434.5-32.59v-171h91v171h-91ZM252.8-645.07 131.15-763.96l64.89-63.65L316.7-706.96l-63.9 61.89Zm510.4 514.4L644.3-253.8l61.9-61.9 121.65 117.42-64.65 67.61ZM32.59-434.5v-91h171v91h-171Zm163.45 303.35-63.89-64.89 119.89-119.89 32.83 31.06 33.06 31.83-121.89 121.89Zm115.28-180.17q-69.41-69.4-69.41-168.68t69.41-168.68q69.4-69.41 168.68-69.41t168.68 69.41q69.41 69.4 69.41 168.68t-69.41 168.68q-69.4 69.41-168.68 69.41t-168.68-69.41Z"/></svg>