<svg xmlns="http://www.w3.org/2000/svg" height="24px" viewBox="0 -960 960 960" width="24px" fill="#f0eee9"><path d="M566.22-516.41q-18.44 0-31.01-12.58-12.58-12.58-12.58-31.01t12.58-31.01q12.57-12.58 31.01-12.58h123.82q18.44 0 31.01 12.58 12.58 12.58 12.58 31.01t-12.58 31.01q-12.57 12.58-31.01 12.58H566.22Zm0-167.18q-18.44 0-31.01-12.69-12.58-12.7-12.58-31.13 0-18.44 12.58-31.01Q547.78-771 566.22-771h243.82q18.44 0 31.01 12.58 12.58 12.57 12.58 31.01 0 18.43-12.58 31.13-12.57 12.69-31.01 12.69H566.22ZM165.47-172.76Q104.7-233.65 104.7-320q0-48.72 21-91.17 21-42.46 59-72.42V-720q0-53.35 37.27-90.74 37.27-37.39 90.62-37.39 53.34 0 90.74 37.39 37.39 37.39 37.39 90.74v236.41q38 29.96 59 72.42 21 42.45 21 91.17 0 86.35-60.89 147.24-60.9 60.89-147.24 60.89-86.35 0-147.12-60.89ZM195.7-320h234.02q0-29.96-13.34-55.55-13.34-25.6-37.29-42.36l-29.37-21.37V-720q0-15.57-10.79-26.35-10.78-10.78-26.34-10.78-15.57 0-26.23 10.78T275.7-720v280.72l-29.13 21.37q-24.2 17-37.54 42.59-13.33 25.6-13.33 55.32Z"/></svg>