<svg xmlns="http://www.w3.org/2000/svg" height="40px" viewBox="0 -960 960 960" width="40px" fill="#f0eee9"><path d="M461.17-85.5Q452.33-91 448-102.33L240-707.67l136 32 70.67-46v-109q0-36.66 27.33-63Q501.33-920 540-920q39.33 0 66.33 26.33 27 26.34 27 63v17.34h-66.66v-17.34q0-11.33-7.67-18.5-7.67-7.16-19-7.16-10.67 0-18.67 7.83-8 7.83-8 17.83v109l70.67 46 136-32-208 604.34q-4.33 12-13.17 17.66Q490-80 480-80q-10 0-18.83-5.5ZM513.33-312l104-303.33-48.66 11-55.34-37V-312Zm-66.66 0v-329.33l-55.34 38L341.67-616l105 304Z"/></svg>