<svg xmlns="http://www.w3.org/2000/svg" height="24px" viewBox="0 -960 960 960" width="24px" fill="#efe237"><path d="M434.5-796.41v-131h91v131h-91Zm0 763.82v-131h91v131h-91ZM796.41-434.5v-91h131v91h-131Zm-763.82 0v-91h131v91h-131ZM749.2-685.3l-63.9-63.9 77.9-79.65 65.65 65.65-79.65 77.9ZM196.8-131.15l-65.65-65.65 79.65-77.9 63.9 63.9-77.9 79.65Zm566.4 0-77.9-79.65 63.9-63.9 79.65 77.9-65.65 65.65ZM210.8-685.3l-79.65-77.9 65.65-65.65 77.9 79.65-63.9 63.9ZM310-310q-70-70-70-170t70-170q70-70 170-70t170 70q70 70 70 170t-70 170q-70 70-170 70t-170-70Z"/></svg>