<svg xmlns="http://www.w3.org/2000/svg" xmlns:xlink="http://www.w3.org/1999/xlink" width="826" zoomAndPan="magnify" viewBox="0 0 619.5 214.499994" height="286" preserveAspectRatio="xMidYMid meet" version="1.0"><defs><clipPath id="bd4ba93398"><path d="M 0.472656 0 L 618.53125 0 L 618.53125 214 L 0.472656 214 Z M 0.472656 0 " clip-rule="nonzero"/></clipPath><clipPath id="6c75ef0218"><path d="M 0.472656 0 L 618.53125 0 L 618.53125 213.648438 L 0.472656 213.648438 Z M 0.472656 0 " clip-rule="nonzero"/></clipPath><clipPath id="92a416d5c1"><path d="M 47.609375 0 L 571.304688 0 C 597.339844 0 618.445312 21.105469 618.445312 47.140625 L 618.445312 166.507812 C 618.445312 192.542969 597.339844 213.648438 571.304688 213.648438 L 47.609375 213.648438 C 21.578125 213.648438 0.472656 192.542969 0.472656 166.507812 L 0.472656 47.140625 C 0.472656 21.105469 21.578125 0 47.609375 0 Z M 47.609375 0 " clip-rule="nonzero"/></clipPath><clipPath id="8ad836e7f4"><path d="M 0.472656 0 L 618.46875 0 L 618.46875 213.648438 L 0.472656 213.648438 Z M 0.472656 0 " clip-rule="nonzero"/></clipPath><clipPath id="d14719c13e"><path d="M 47.609375 0 L 571.304688 0 C 597.339844 0 618.445312 21.105469 618.445312 47.140625 L 618.445312 166.507812 C 618.445312 192.542969 597.339844 213.648438 571.304688 213.648438 L 47.609375 213.648438 C 21.578125 213.648438 0.472656 192.542969 0.472656 166.507812 L 0.472656 47.140625 C 0.472656 21.105469 21.578125 0 47.609375 0 Z M 47.609375 0 " clip-rule="nonzero"/></clipPath><clipPath id="4626af4fe7"><rect x="0" width="619" y="0" height="214"/></clipPath><clipPath id="9b72a257fb"><path d="M 77.167969 50.652344 L 179 50.652344 L 179 162.726562 L 77.167969 162.726562 Z M 77.167969 50.652344 " clip-rule="nonzero"/></clipPath><clipPath id="0b5e1809d6"><path d="M 230 80 L 314 80 L 314 162.726562 L 230 162.726562 Z M 230 80 " clip-rule="nonzero"/></clipPath><clipPath id="ce43cf0d75"><path d="M 386 81 L 469 81 L 469 162.726562 L 386 162.726562 Z M 386 81 " clip-rule="nonzero"/></clipPath><clipPath id="c28d43d9d1"><path d="M 465 80 L 542 80 L 542 162.726562 L 465 162.726562 Z M 465 80 " clip-rule="nonzero"/></clipPath><clipPath id="591124a10f"><path d="M 313 50.652344 L 396 50.652344 L 396 161 L 313 161 Z M 313 50.652344 " clip-rule="nonzero"/></clipPath><clipPath id="3f3dd11642"><rect x="0" width="619" y="0" height="214"/></clipPath></defs><g clip-path="url(#bd4ba93398)"><g transform="matrix(1, 0, 0, 1, 0, 0)"><g clip-path="url(#3f3dd11642)"><g clip-path="url(#6c75ef0218)"><g clip-path="url(#92a416d5c1)"><g transform="matrix(1, 0, 0, 1, 0, 0)"><g clip-path="url(#4626af4fe7)"><g clip-path="url(#8ad836e7f4)"><g clip-path="url(#d14719c13e)"><path fill="#27293d" d="M 0.472656 0 L 618.046875 0 L 618.046875 213.648438 L 0.472656 213.648438 Z M 0.472656 0 " fill-opacity="1" fill-rule="nonzero"/></g></g></g></g></g></g><g clip-path="url(#9b72a257fb)"><path fill="#f0eee9" d="M 178.664062 50.386719 L 167.519531 113.597656 C 161.765625 146.242188 140.394531 162.925781 114.859375 162.925781 C 90.484375 162.925781 72.570312 146.847656 78.4375 113.597656 L 89.582031 50.386719 L 108.585938 50.386719 L 97.445312 113.597656 C 93.941406 133.457031 102.523438 144.019531 118.339844 144.019531 C 134.15625 144.019531 145.179688 132.511719 148.515625 113.597656 L 159.652344 50.386719 Z M 178.664062 50.386719 " fill-opacity="1" fill-rule="nonzero"/></g><path fill="#f0eee9" d="M 219.800781 141.8125 C 216.710938 143.230469 213.074219 144.175781 210.082031 144.175781 C 204.089844 144.175781 200.652344 140.550781 201.941406 133.144531 L 207.859375 99.566406 L 229.457031 99.566406 L 232.355469 83.015625 L 210.921875 83.015625 L 214.8125 60.949219 L 195.226562 62.996094 L 191.703125 83.03125 L 174.292969 99.582031 L 188.800781 99.582031 L 182.867188 133.144531 C 179.449219 152.53125 188.789062 162.160156 205.765625 161.515625 C 211.628906 161.359375 216.363281 160.425781 222.269531 158.203125 Z M 219.800781 141.8125 " fill-opacity="1" fill-rule="nonzero"/><g clip-path="url(#0b5e1809d6)"><path fill="#f0eee9" d="M 249.765625 128.570312 C 249.332031 138.183594 256.464844 145.121094 270.019531 145.121094 C 277.113281 145.121094 286.886719 142.445312 292.105469 137.867188 L 302.261719 150.007812 C 292.566406 158.515625 278.445312 162.613281 266.621094 162.613281 C 239.824219 162.613281 226.820312 146.0625 231.210938 121.160156 C 235.378906 97.515625 254.457031 80.492188 279.679688 80.492188 C 305.6875 80.492188 319.089844 96.570312 310.453125 128.570312 Z M 294.816406 112.648438 C 295.335938 102.5625 288.34375 97.515625 277.308594 97.515625 C 266.90625 97.515625 257.503906 102.5625 252.886719 112.648438 Z M 294.816406 112.648438 " fill-opacity="1" fill-rule="nonzero"/></g><g clip-path="url(#ce43cf0d75)"><path fill="#f0eee9" d="M 468.15625 121.792969 C 464.207031 144.175781 445.722656 162.300781 420.503906 162.300781 C 395.285156 162.300781 383.347656 144.167969 387.292969 121.792969 C 391.210938 99.566406 409.882812 81.28125 434.632812 81.28125 C 459.378906 81.28125 472.074219 99.566406 468.15625 121.792969 Z M 406.523438 121.792969 C 404.4375 133.613281 409.585938 144.644531 423.617188 144.644531 C 437.644531 144.644531 446.683594 133.613281 448.765625 121.792969 C 450.824219 110.128906 444.628906 98.78125 431.71875 98.78125 C 417.832031 98.78125 408.582031 110.128906 406.523438 121.792969 Z M 406.523438 121.792969 " fill-opacity="1" fill-rule="nonzero"/></g><g clip-path="url(#c28d43d9d1)"><path fill="#f0eee9" d="M 528.65625 103.503906 C 524.058594 98.304688 518.054688 96.570312 510.648438 96.570312 C 501.503906 96.570312 495.960938 99.410156 495.097656 104.296875 C 494.207031 109.339844 498.277344 112.179688 508.097656 112.804688 C 522.605469 113.753906 540.609375 117.0625 536.964844 137.714844 C 534.550781 151.429688 521.273438 163.25 499.046875 163.25 C 486.75 163.25 474.816406 161.199219 465.554688 149.378906 L 477.429688 135.664062 C 481.863281 141.8125 493.667969 146.382812 502.308594 146.546875 C 509.535156 146.703125 516.976562 142.917969 517.976562 137.246094 C 518.925781 131.886719 514.898438 129.679688 503.976562 129.046875 C 489.511719 127.941406 472.957031 122.585938 476.074219 104.929688 C 479.238281 86.957031 498.953125 80.652344 513.140625 80.652344 C 525.277344 80.652344 534.003906 83.019531 541.597656 90.902344 Z M 528.65625 103.503906 " fill-opacity="1" fill-rule="nonzero"/></g><g clip-path="url(#591124a10f)"><path fill="#f0eee9" d="M 361.460938 125.175781 L 395.1875 83.960938 L 371.246094 83.960938 L 338.867188 124.433594 L 351.925781 50.386719 L 332.691406 50.386719 L 313.265625 160.570312 L 332.496094 160.570312 L 349.011719 140.386719 L 362.917969 160.570312 L 386.09375 160.570312 L 386.34375 159.152344 Z M 361.460938 125.175781 " fill-opacity="1" fill-rule="nonzero"/></g></g></g></g></svg>