<?xml version="1.0" standalone="no"?>
<!DOCTYPE svg PUBLIC "-//W3C//DTD SVG 1.1//EN" "http://www.w3.org/Graphics/SVG/1.1/DTD/svg11.dtd">
<svg xmlns="http://www.w3.org/2000/svg" id="Artwork" viewBox="0 0 241.81 151.13" width="241.80999755859375" height="151.1300048828125">
  <defs>
    <style>
      .cls-1 {
        fill: #ff5b24;
      }

      .cls-2 {
        fill: #fff;
      }

      .cls-3 {
        fill: #363638;
      }
    </style>
  </defs>
  <rect class="cls-3" x="0" width="241.81" height="151.13" rx="24.18" ry="24.18"/>
  <rect class="cls-1" x="0" width="241.81" height="151.13" rx="24.18" ry="24.18"/>
  <g>
    <path class="cls-2" d="M34.4,55.02l8.21,23.98,8.21-23.98h9.5l-14.16,35.57h-7.08l-14.16-35.57h9.49Z"/>
    <path class="cls-2" d="M81.56,84.96c5.95,0,9.33-2.9,12.55-7.08,1.77-2.25,4.02-2.74,5.63-1.45s1.77,3.7,0,5.95c-4.67,6.12-10.62,9.82-18.19,9.82-8.21,0-15.45-4.51-20.44-12.39-1.45-2.09-1.13-4.35.48-5.47,1.61-1.13,4.02-.64,5.47,1.61,3.54,5.31,8.37,9.01,14.48,9.01ZM92.66,65.16c0,2.9-2.25,4.83-4.83,4.83s-4.83-1.93-4.83-4.83,2.25-4.83,4.83-4.83,4.83,2.09,4.83,4.83Z"/>
    <path class="cls-2" d="M115.35,55.02v4.83c2.41-3.38,6.12-5.79,11.59-5.79,6.92,0,14.97,5.79,14.97,18.19,0,13.04-7.72,19.31-15.77,19.31-4.18,0-8.05-1.61-10.94-5.63v17.06h-8.69v-47.96h8.85ZM115.35,72.73c0,7.24,4.18,11.1,8.85,11.1s9.01-3.54,9.01-11.1-4.51-10.94-9.01-10.94-8.85,3.38-8.85,10.94Z"/>
    <path class="cls-2" d="M157.2,55.02v4.83c2.41-3.38,6.12-5.79,11.59-5.79,6.92,0,14.97,5.79,14.97,18.19,0,13.04-7.72,19.31-15.77,19.31-4.18,0-8.05-1.61-10.94-5.63v17.06h-8.69v-47.96h8.85ZM157.2,72.73c0,7.24,4.18,11.1,8.85,11.1s9.01-3.54,9.01-11.1-4.51-10.94-9.01-10.94-8.85,3.38-8.85,10.94Z"/>
    <path class="cls-2" d="M202.26,54.06c7.24,0,12.39,3.38,14.64,11.75l-7.89,1.29c-.16-4.18-2.74-5.63-6.6-5.63-2.9,0-5.15,1.29-5.15,3.38,0,1.61,1.13,3.22,4.51,3.86l5.95,1.13c5.79,1.13,9.01,4.99,9.01,10.14,0,7.72-6.92,11.59-13.52,11.59-6.92,0-14.64-3.54-15.77-12.23l7.89-1.29c.48,4.51,3.22,6.12,7.72,6.12,3.38,0,5.63-1.29,5.63-3.38,0-1.93-1.13-3.38-4.83-4.02l-5.47-.97c-5.79-1.13-9.33-5.15-9.33-10.3.16-8.05,7.4-11.43,13.2-11.43Z"/>
  </g>
</svg>