<svg xmlns="http://www.w3.org/2000/svg" xmlns:xlink="http://www.w3.org/1999/xlink" width="1202" zoomAndPan="magnify" viewBox="0 0 901.5 311.999988" height="416" preserveAspectRatio="xMidYMid meet" version="1.0"><defs><clipPath id="ebca95aa85"><path d="M 0 0.0859375 L 901 0.0859375 L 901 311.914062 L 0 311.914062 Z M 0 0.0859375 " clip-rule="nonzero"/></clipPath><clipPath id="aee0073f89"><path d="M 0 0.0859375 L 901 0.0859375 L 901 311.488281 L 0 311.488281 Z M 0 0.0859375 " clip-rule="nonzero"/></clipPath><clipPath id="34e103e026"><path d="M 48.722656 0.0859375 L 852 0.0859375 C 878.90625 0.0859375 900.722656 21.902344 900.722656 48.808594 L 900.722656 262.765625 C 900.722656 289.671875 878.90625 311.488281 852 311.488281 L 48.722656 311.488281 C 21.8125 311.488281 0 289.671875 0 262.765625 L 0 48.808594 C 0 21.902344 21.8125 0.0859375 48.722656 0.0859375 Z M 48.722656 0.0859375 " clip-rule="nonzero"/></clipPath><clipPath id="0155d9e9dc"><path d="M 0 0.0859375 L 900.941406 0.0859375 L 900.941406 311.488281 L 0 311.488281 Z M 0 0.0859375 " clip-rule="nonzero"/></clipPath><clipPath id="6792913ef1"><path d="M 48.722656 0.0859375 L 852 0.0859375 C 878.90625 0.0859375 900.722656 21.902344 900.722656 48.808594 L 900.722656 262.765625 C 900.722656 289.671875 878.90625 311.488281 852 311.488281 L 48.722656 311.488281 C 21.8125 311.488281 0 289.671875 0 262.765625 L 0 48.808594 C 0 21.902344 21.8125 0.0859375 48.722656 0.0859375 Z M 48.722656 0.0859375 " clip-rule="nonzero"/></clipPath><clipPath id="5736ad73d7"><rect x="0" width="901" y="0" height="312"/></clipPath><clipPath id="1e082a0bc6"><path d="M 82.148438 66.746094 L 244 66.746094 L 244 244.828125 L 82.148438 244.828125 Z M 82.148438 66.746094 " clip-rule="nonzero"/></clipPath><clipPath id="5685eeb936"><path d="M 324 114 L 457 114 L 457 244.828125 L 324 244.828125 Z M 324 114 " clip-rule="nonzero"/></clipPath><clipPath id="1da0c3d1c4"><path d="M 697 114 L 818.574219 114 L 818.574219 244.828125 L 697 244.828125 Z M 697 114 " clip-rule="nonzero"/></clipPath><clipPath id="6906f9683a"><path d="M 456 66.746094 L 587 66.746094 L 587 241 L 456 241 Z M 456 66.746094 " clip-rule="nonzero"/></clipPath><clipPath id="12bde997b7"><rect x="0" width="901" y="0" height="312"/></clipPath></defs><g clip-path="url(#ebca95aa85)"><path fill="#ffffff" d="M 0 0.0859375 L 901 0.0859375 L 901 311.914062 L 0 311.914062 Z M 0 0.0859375 " fill-opacity="1" fill-rule="nonzero"/><g transform="matrix(1, 0, 0, 1, 0, -0.000000000000030392)"><g clip-path="url(#12bde997b7)"><g clip-path="url(#aee0073f89)"><g clip-path="url(#34e103e026)"><g transform="matrix(1, 0, 0, 1, 0, -0.000000000000030392)"><g clip-path="url(#5736ad73d7)"><g clip-path="url(#0155d9e9dc)"><g clip-path="url(#6792913ef1)"><path fill="#27293d" d="M 0 0.0859375 L 900.144531 0.0859375 L 900.144531 311.488281 L 0 311.488281 Z M 0 0.0859375 " fill-opacity="1" fill-rule="nonzero"/></g></g></g></g></g></g><g clip-path="url(#1e082a0bc6)"><path fill="#f0eee9" d="M 243.019531 66.324219 L 225.355469 166.527344 C 216.230469 218.277344 182.351562 244.730469 141.871094 244.730469 C 103.230469 244.730469 74.835938 219.238281 84.132812 166.527344 L 101.804688 66.324219 L 131.929688 66.324219 L 114.265625 166.527344 C 108.710938 198.011719 122.316406 214.753906 147.390625 214.753906 C 172.464844 214.753906 189.941406 196.515625 195.226562 166.527344 L 212.882812 66.324219 Z M 243.019531 66.324219 " fill-opacity="1" fill-rule="nonzero"/></g><path fill="#f0eee9" d="M 308.230469 211.257812 C 303.332031 213.507812 297.570312 215.007812 292.828125 215.007812 C 283.328125 215.007812 277.875 209.257812 279.917969 197.515625 L 289.300781 144.289062 L 323.539062 144.289062 L 328.136719 118.050781 L 294.15625 118.050781 L 300.324219 83.066406 L 269.273438 86.316406 L 263.691406 118.074219 L 236.089844 144.308594 L 259.089844 144.308594 L 249.683594 197.515625 C 244.265625 228.25 259.066406 243.515625 285.984375 242.492188 C 295.277344 242.246094 302.785156 240.769531 312.148438 237.242188 Z M 308.230469 211.257812 " fill-opacity="1" fill-rule="nonzero"/><g clip-path="url(#5685eeb936)"><path fill="#f0eee9" d="M 355.730469 190.265625 C 355.046875 205.507812 366.351562 216.503906 387.839844 216.503906 C 399.085938 216.503906 414.578125 212.257812 422.851562 205.003906 L 438.953125 224.246094 C 423.582031 237.738281 401.199219 244.234375 382.453125 244.234375 C 339.976562 244.234375 319.363281 217.996094 326.320312 178.515625 C 332.925781 141.039062 363.171875 114.046875 403.160156 114.046875 C 444.386719 114.046875 465.632812 139.539062 451.941406 190.265625 Z M 427.152344 165.027344 C 427.976562 149.035156 416.890625 141.039062 399.398438 141.039062 C 382.90625 141.039062 368.003906 149.035156 360.683594 165.027344 Z M 427.152344 165.027344 " fill-opacity="1" fill-rule="nonzero"/></g><path fill="#f0eee9" d="M 701.941406 179.523438 C 695.679688 215.007812 666.378906 243.742188 626.398438 243.742188 C 586.417969 243.742188 567.496094 214.988281 573.75 179.523438 C 579.960938 144.289062 609.5625 115.300781 648.796875 115.300781 C 688.027344 115.300781 708.152344 144.289062 701.941406 179.523438 Z M 604.238281 179.523438 C 600.933594 198.261719 609.089844 215.75 631.332031 215.75 C 653.574219 215.75 667.902344 198.257812 671.203125 179.523438 C 674.464844 161.03125 664.644531 143.039062 644.179688 143.039062 C 622.160156 143.039062 607.5 161.03125 604.238281 179.523438 Z M 604.238281 179.523438 " fill-opacity="1" fill-rule="nonzero"/><g clip-path="url(#1da0c3d1c4)"><path fill="#f0eee9" d="M 797.847656 150.53125 C 790.558594 142.285156 781.042969 139.539062 769.300781 139.539062 C 754.804688 139.539062 746.015625 144.039062 744.648438 151.785156 C 743.238281 159.777344 749.691406 164.28125 765.257812 165.273438 C 788.257812 166.777344 816.792969 172.027344 811.023438 204.761719 C 807.191406 226.5 786.148438 245.242188 750.910156 245.242188 C 731.417969 245.242188 712.5 241.992188 697.816406 223.253906 L 716.640625 201.511719 C 723.667969 211.257812 742.382812 218.503906 756.078125 218.761719 C 767.535156 219.007812 779.332031 213.011719 780.921875 204.019531 C 782.421875 195.519531 776.039062 192.023438 758.726562 191.023438 C 735.792969 189.269531 709.550781 180.777344 714.488281 152.792969 C 719.507812 124.300781 750.761719 114.304688 773.25 114.304688 C 792.488281 114.304688 806.324219 118.054688 818.363281 130.550781 Z M 797.847656 150.53125 " fill-opacity="1" fill-rule="nonzero"/></g><g clip-path="url(#6906f9683a)"><path fill="#f0eee9" d="M 532.800781 184.882812 L 586.261719 119.550781 L 548.3125 119.550781 L 496.984375 183.710938 L 517.683594 66.324219 L 487.195312 66.324219 L 456.398438 240.992188 L 486.886719 240.992188 L 513.066406 209 L 535.109375 240.992188 L 571.847656 240.992188 L 572.246094 238.742188 Z M 532.800781 184.882812 " fill-opacity="1" fill-rule="nonzero"/></g></g></g></g></svg>