<?xml version="1.0" standalone="no"?>
<!DOCTYPE svg PUBLIC "-//W3C//DTD SVG 1.1//EN" "http://www.w3.org/Graphics/SVG/1.1/DTD/svg11.dtd">
<svg xmlns="http://www.w3.org/2000/svg" id="pn_x5F_color_x5F_rgb" baseProfile="tiny" version="1.2" viewBox="0 0 1063.8137 200" width="1063.813720703125" height="200">
  <!-- Generator: Adobe Illustrator 29.5.1, SVG Export Plug-In . SVG Version: 2.1.0 Build 141)  -->
  <path d="M425.754,123.3581c0,27.436-22.001,44.2213-69.6307,44.2213-28.3592,0-50.1328-7.6965-50.1328-7.6965l9.2982-36.2899s21.7767,9.7486,44.9171,9.7486c10.6582,0,16.7822-1.8104,16.7822-7.2567,0-5.6736-5.6699-6.5751-21.0958-8.6196-36.5211-4.7572-48.9927-17.2364-48.9927-38.3247,0-27.2086,23.1367-44.2175,67.3655-44.2175,26.3109,0,46.0466,5.6661,46.0466,5.6661l-8.1655,35.1505s-17.9179-6.8063-38.336-6.8063c-12.0243,0-18.1408,2.0491-18.1408,7.0367,0,5.8898,6.5706,5.8898,21.5463,8.1588,36.741,5.6692,48.5386,17.4668,48.5386,39.2292ZM301.6769,100.2289c0,47.6184-38.7864,67.5704-75.3037,67.5704-36.2906,0-73.7168-19.4904-73.7168-65.5258,0-47.1711,38.1047-67.5779,75.3035-67.5779,36.2906,0,73.717,19.7216,73.717,65.5333ZM252.4567,101.5957c0-15.6526-10.2034-26.3109-25.4057-26.3109-15.4185,0-25.6249,10.6583-25.6249,26.3109,0,14.7332,10.4301,25.6256,25.6249,25.6256,15.426,0,25.4057-10.8924,25.4057-25.6256ZM144.9448,101.5957c0,36.2906-24.9546,66.2036-63.7371,66.2036-23.8182,0-34.9336-11.7864-34.9336-11.7864v43.9871H0V38.7713h46.2741v12.2517s12.0243-16.3274,38.3352-16.3274c38.5589,0,60.3355,29.7043,60.3355,66.9001ZM95.9484,101.5957c0-15.6526-10.2064-26.3109-25.405-26.3109-15.4222,0-25.633,10.6583-25.633,26.3109,0,14.7332,10.4337,25.6256,25.633,25.6256,15.4252,0,25.405-10.8924,25.405-25.6256ZM480.8707,10.6537h-46.2697v153.3048h46.2697v-86.1743h21.7811l21.0951-39.0129h-42.8762V10.6537ZM1063.8137,0v163.9586h-46.2659v-12.2555s-12.0213,16.3312-38.3352,16.3312c-38.5559,0-60.3399-29.7081-60.3399-66.8926,0-36.2906,24.9507-66.2186,63.7408-66.2186,23.8221,0,34.9343,11.7902,34.9343,11.7902V9.0707l46.2659-9.0707ZM1018.8967,101.1416c0-14.7444-10.4233-25.6256-25.6106-25.6256-15.4222,0-25.4057,10.8812-25.4057,25.6256,0,15.6346,10.2034,26.2996,25.4057,26.2996,15.4072,0,25.6106-10.665,25.6106-26.2996ZM610.6207,34.6956c-26.9886,0-36.7515,16.3274-36.7515,16.3274v-12.2517h-46.2704v125.1873h46.2704v-64.1807c0-15.8726,5.9078-23.1329,20.1862-23.1329,14.2933,0,16.3386,11.7939,16.3386,26.765v60.5487h46.7208v-76.8798c0-34.472-16.5437-52.3831-46.4941-52.3831ZM874.204,53.2883v-14.517h-46.2808v125.1873h46.2808v-60.3287c0-19.0468,11.5522-24.9434,26.9887-24.9434,9.5143,0,15.6421,2.2645,15.6421,2.2645l1.1439-42.6308s-2.9618-1.3594-10.8925-1.3594c-25.8598,0-32.8823,16.3275-32.8823,16.3275ZM816.9212,100.2289c0,47.6184-38.79,67.5704-75.3074,67.5704-36.2906,0-73.7169-19.4904-73.7169-65.5258,0-47.1711,38.1011-67.5779,75.3074-67.5779,36.2906,0,73.717,19.7216,73.717,65.5333ZM767.701,101.5957c0-15.6526-10.2034-26.3109-25.4057-26.3109-15.4222,0-25.6399,10.6583-25.6399,26.3109,0,14.7332,10.4451,25.6256,25.6399,25.6256,15.4297,0,25.4057-10.8924,25.4057-25.6256Z" fill="#00a0d6"/>
</svg>